<svg width="380" height="144" viewBox="0 0 380 144" fill="none" xmlns="http://www.w3.org/2000/svg">
<rect width="380" height="144" rx="8" fill="#E9EBED"/>
<path d="M211 57H205V63H211V57Z" fill="#9B9FA1"/>
<path d="M211 69H205V75H211V69Z" fill="#9B9FA1"/>
<path d="M211 81H205V87H211V81Z" fill="#9B9FA1"/>
<path d="M157 69V99H175V84H181V99H199V69L178 54L157 69ZM193 93H187V78H169V93H163V72L178 61.5L193 72V93Z" fill="#9B9FA1"/>
<path d="M184 45V50.91L190 55.2V51H217V93H205V99H223V45H184Z" fill="#9B9FA1"/>
</svg>
