<svg width="80" height="80" viewBox="0 0 80 80" fill="none" xmlns="http://www.w3.org/2000/svg">
<rect width="80" height="80" rx="16" fill="#F4F9FF"/>
<path d="M54 34L56.5 28.5L62 26L56.5 23.5L54 18L51.5 23.5L46 26L51.5 28.5L54 34Z" fill="#414D5C"/>
<path d="M54 46L51.5 51.5L46 54L51.5 56.5L54 62L56.5 56.5L62 54L56.5 51.5L54 46Z" fill="#414D5C"/>
<path d="M39 35L34 24L29 35L18 40L29 45L34 56L39 45L50 40L39 35ZM35.98 41.98L34 46.34L32.02 41.98L27.66 40L32.02 38.02L34 33.66L35.98 38.02L40.34 40L35.98 41.98Z" fill="#414D5C"/>
</svg>
